<svg width="134" height="25" viewBox="0 0 134 25" fill="none" xmlns="http://www.w3.org/2000/svg">
<path d="M18.296 0.688L17.752 4.816H11.832L9.464 24H4.28L6.616 4.816H0.664L1.176 0.688H18.296ZM14.0543 24L16.0703 7.408H18.6302C19.1423 7.408 19.5423 7.53067 19.8303 7.776C20.1183 8.01067 20.2623 8.4 20.2623 8.944V10.832C20.9023 9.70133 21.5956 8.832 22.3423 8.224C23.0889 7.616 23.8623 7.312 24.6623 7.312C25.1103 7.312 25.5529 7.41333 25.9903 7.616L25.0943 12.208C24.5503 11.9733 24.0329 11.856 23.5423 11.856C22.7209 11.856 21.9903 12.2293 21.3503 12.976C20.7209 13.712 20.2089 14.9013 19.8143 16.544L18.9183 24H14.0543ZM38.355 24H35.699C35.3897 24 35.1283 23.9627 34.915 23.888C34.7123 23.8027 34.547 23.6907 34.419 23.552C34.3017 23.4133 34.2163 23.248 34.163 23.056C34.1203 22.864 34.099 22.656 34.099 22.432V21.248C33.4163 22.1867 32.659 22.9227 31.827 23.456C30.995 23.9893 30.0777 24.256 29.075 24.256C28.4777 24.256 27.9017 24.1387 27.347 23.904C26.7923 23.6587 26.3017 23.296 25.875 22.816C25.4483 22.3253 25.107 21.7067 24.851 20.96C24.595 20.2027 24.467 19.312 24.467 18.288C24.467 16.784 24.739 15.36 25.283 14.016C25.8377 12.6613 26.6057 11.4773 27.587 10.464C28.579 9.45067 29.7523 8.64533 31.107 8.048C32.4617 7.45067 33.9497 7.152 35.571 7.152C36.3603 7.152 37.1603 7.20533 37.971 7.312C38.7817 7.41867 39.5817 7.61067 40.371 7.888L38.355 24ZM31.059 20.336C31.4217 20.336 31.7737 20.2027 32.115 19.936C32.4563 19.6587 32.7763 19.2853 33.075 18.816C33.3843 18.3467 33.667 17.7973 33.923 17.168C34.179 16.5387 34.3977 15.8667 34.579 15.152L35.155 10.56H34.867C34.0563 10.56 33.315 10.7413 32.643 11.104C31.9817 11.4667 31.411 11.9627 30.931 12.592C30.451 13.2107 30.0777 13.936 29.811 14.768C29.555 15.5893 29.427 16.4693 29.427 17.408C29.427 17.9413 29.4697 18.3947 29.555 18.768C29.6403 19.1413 29.7523 19.4453 29.891 19.68C30.0403 19.904 30.211 20.0693 30.403 20.176C30.6057 20.2827 30.8243 20.336 31.059 20.336ZM53.7542 21.088C53.2209 21.6747 52.7089 22.1707 52.2182 22.576C51.7276 22.9813 51.2209 23.3067 50.6982 23.552C50.1756 23.7973 49.6156 23.9733 49.0182 24.08C48.4316 24.1973 47.7809 24.256 47.0662 24.256C46.0956 24.256 45.2209 24.0907 44.4422 23.76C43.6636 23.4293 42.9969 22.96 42.4422 22.352C41.8982 21.744 41.4769 21.008 41.1782 20.144C40.8796 19.28 40.7302 18.3093 40.7302 17.232C40.7302 15.8773 40.9489 14.592 41.3862 13.376C41.8342 12.16 42.4529 11.0933 43.2422 10.176C44.0422 9.25867 44.9862 8.53333 46.0742 8C47.1622 7.456 48.3569 7.184 49.6582 7.184C50.7676 7.184 51.7169 7.376 52.5062 7.76C53.3062 8.13333 54.0209 8.72533 54.6502 9.536L53.0502 11.376C52.9329 11.4933 52.7996 11.6 52.6502 11.696C52.5009 11.7813 52.3356 11.824 52.1542 11.824C51.9409 11.824 51.7596 11.7813 51.6102 11.696C51.4716 11.6 51.3169 11.504 51.1462 11.408C50.9756 11.3013 50.7676 11.2053 50.5222 11.12C50.2769 11.024 49.9569 10.976 49.5622 10.976C49.0716 10.976 48.5916 11.12 48.1222 11.408C47.6636 11.6853 47.2529 12.0907 46.8902 12.624C46.5276 13.1573 46.2342 13.8133 46.0102 14.592C45.7969 15.3707 45.6902 16.256 45.6902 17.248C45.6902 17.8027 45.7542 18.288 45.8822 18.704C46.0102 19.1093 46.1862 19.4507 46.4102 19.728C46.6342 19.9947 46.8956 20.1973 47.1942 20.336C47.4929 20.4747 47.8129 20.544 48.1542 20.544C48.6662 20.544 49.0769 20.4747 49.3862 20.336C49.7062 20.1867 49.9836 20.0267 50.2182 19.856C50.4529 19.6853 50.6716 19.5307 50.8742 19.392C51.0769 19.2427 51.3222 19.168 51.6102 19.168C51.7702 19.168 51.9249 19.2053 52.0742 19.28C52.2342 19.3547 52.3676 19.456 52.4742 19.584L53.7542 21.088ZM61.8313 0.0479984L60.1832 13.472H60.5193C60.7966 13.472 61.0206 13.4293 61.1912 13.344C61.3619 13.2587 61.5326 13.104 61.7032 12.88L65.1273 8.208C65.3299 7.93067 65.5539 7.728 65.7993 7.6C66.0446 7.472 66.3433 7.408 66.6953 7.408H71.1433L66.5033 13.312C66.2899 13.5893 66.0553 13.8347 65.7993 14.048C65.5433 14.2613 65.2766 14.448 64.9993 14.608C65.2233 14.7893 65.4153 15.0027 65.5753 15.248C65.7459 15.4827 65.8953 15.7547 66.0233 16.064L69.3512 24H65.0312C64.6793 24 64.3859 23.9413 64.1513 23.824C63.9273 23.696 63.7513 23.4773 63.6233 23.168L61.3193 17.296C61.2019 17.0293 61.0739 16.8587 60.9353 16.784C60.8073 16.6987 60.5939 16.656 60.2953 16.656H59.7833L58.8872 24H53.9912L56.9353 0.0479984H61.8313ZM86.4725 4.704H77.8485L77.0805 10.848H84.2965L83.7525 14.864H76.5845L75.4645 24H70.2165L73.0965 0.688H86.9845L86.4725 4.704ZM85.6635 24L88.5755 0.0479984H93.4715L90.5595 24H85.6635ZM99.9577 20.576C100.512 20.576 101.008 20.4107 101.446 20.08C101.883 19.7387 102.251 19.28 102.55 18.704C102.859 18.1173 103.094 17.44 103.254 16.672C103.424 15.8933 103.51 15.0667 103.51 14.192C103.51 12.9867 103.344 12.128 103.014 11.616C102.694 11.0933 102.166 10.832 101.43 10.832C100.875 10.832 100.379 11.0027 99.9417 11.344C99.5044 11.6747 99.1311 12.128 98.8217 12.704C98.5231 13.28 98.2884 13.9573 98.1177 14.736C97.9577 15.5147 97.8777 16.3413 97.8777 17.216C97.8777 18.4 98.0377 19.2587 98.3577 19.792C98.6884 20.3147 99.2217 20.576 99.9577 20.576ZM99.5097 24.256C98.5817 24.256 97.7124 24.1013 96.9017 23.792C96.1017 23.4827 95.4031 23.0347 94.8057 22.448C94.2191 21.8507 93.7551 21.12 93.4137 20.256C93.0831 19.3813 92.9177 18.3787 92.9177 17.248C92.9177 15.776 93.1577 14.4267 93.6377 13.2C94.1284 11.9627 94.7844 10.896 95.6057 10C96.4271 9.104 97.3764 8.40533 98.4537 7.904C99.5417 7.40267 100.683 7.152 101.878 7.152C102.806 7.152 103.67 7.30667 104.47 7.616C105.27 7.92533 105.963 8.37867 106.55 8.976C107.147 9.56267 107.616 10.2933 107.958 11.168C108.299 12.032 108.47 13.0293 108.47 14.16C108.47 15.6107 108.224 16.9547 107.734 18.192C107.254 19.4187 106.603 20.4853 105.782 21.392C104.96 22.288 104.006 22.992 102.918 23.504C101.84 24.0053 100.704 24.256 99.5097 24.256ZM109.255 7.408H113.063C113.383 7.408 113.655 7.488 113.879 7.648C114.103 7.808 114.225 8.016 114.247 8.272L114.727 15.712C114.727 15.7547 114.727 15.7973 114.727 15.84C114.737 15.872 114.743 15.9093 114.743 15.952C114.775 16.464 114.801 16.96 114.823 17.44C114.844 17.92 114.86 18.4 114.871 18.88C115.063 18.368 115.265 17.8507 115.479 17.328C115.703 16.8053 115.921 16.2667 116.135 15.712L118.919 8.256C119.004 8.01067 119.169 7.808 119.415 7.648C119.671 7.47733 119.943 7.392 120.231 7.392H122.375C122.716 7.392 122.988 7.47733 123.191 7.648C123.404 7.808 123.527 8.01067 123.559 8.256L124.519 15.712C124.593 16.256 124.663 16.7893 124.727 17.312C124.801 17.8347 124.865 18.352 124.919 18.864C125.068 18.352 125.228 17.84 125.399 17.328C125.569 16.816 125.745 16.2773 125.927 15.712L128.263 8.272C128.348 8.02667 128.508 7.824 128.743 7.664C128.988 7.49333 129.255 7.408 129.543 7.408H133.191L126.439 24H122.567C122.375 24 122.215 23.936 122.087 23.808C121.969 23.68 121.884 23.4667 121.831 23.168L120.615 14.896C120.583 14.6613 120.551 14.432 120.519 14.208C120.497 13.9733 120.476 13.7387 120.455 13.504C120.369 13.7493 120.279 13.9893 120.183 14.224C120.087 14.4587 119.996 14.6933 119.911 14.928L116.743 23.168C116.519 23.7227 116.167 24 115.687 24H111.975L109.255 7.408Z" fill="white"/>
</svg>
